<svg xmlns="http://www.w3.org/2000/svg" width="124.492" height="42.772" viewBox="0 0 124.492 42.772">
  <g id="Group_21" data-name="Group 21" transform="translate(-25 -47.228)">
    <g id="Group_20" data-name="Group 20" transform="translate(25 17.226)">
      <path id="Path_33" data-name="Path 33" d="M27.084,30.353l.053-.033.061-.039.071-.04a2.65,2.65,0,0,1,.376-.174,3.324,3.324,0,0,1,.515-.146,4.289,4.289,0,0,1,.628-.075c.112-.006.226-.006.346,0s.238.008.361.018.247.022.373.037.253.032.382.051c.257.036.518.079.781.117.131.018.264.036.394.051s.263.029.394.039c.261.022.519.032.768.035s.49,0,.718-.016.443-.031.641-.055.378-.05.538-.077.3-.054.411-.078.2-.045.262-.06l.093-.022-.094.015c-.061.01-.151.024-.266.04s-.254.034-.414.052c-.08.008-.165.019-.255.026l-.138.013-.145.011c-.2.015-.411.024-.637.03s-.465,0-.712,0-.5-.025-.759-.047c-.129-.011-.259-.026-.388-.041s-.26-.034-.391-.053c-.261-.037-.523-.077-.782-.112s-.516-.062-.765-.076c-.125-.007-.247-.011-.369-.011s-.238.005-.353.015a3.906,3.906,0,0,0-.639.1,3.053,3.053,0,0,0-.518.176,2.439,2.439,0,0,0-.37.2l-.069.046-.058.044-.05.038-.04.034-.072.062.077-.056.042-.03M44.2,41.027h-21.9a1.041,1.041,0,0,0-1.04,1.042v.705H45.236v-.705a1.041,1.041,0,0,0-1.04-1.042M35.675,32.6l-.276-.05c-.1-.02-.219-.035-.344-.054s-.262-.034-.408-.05l-.111-.012-.115-.01-.24-.02c-.082-.007-.166-.01-.253-.015s-.175-.01-.265-.012c-.361-.015-.752-.015-1.165-.007s-.849.027-1.3.053-.914.054-1.385.085-.949.056-1.428.071-.956.02-1.426,0a13.715,13.715,0,0,1-1.373-.113c-.11-.017-.22-.031-.328-.05l-.321-.058-.311-.069c-.052-.01-.1-.024-.152-.037l-.149-.039c-.049-.013-.1-.025-.147-.04l-.145-.045-.142-.044-.069-.022-.068-.023a3.189,3.189,0,0,1-.5-.222,1.7,1.7,0,0,1-.4-.3l-.039-.044a.444.444,0,0,1-.037-.045l-.035-.046c-.011-.015-.02-.031-.03-.047a.931.931,0,0,1-.055-.1.64.64,0,0,1-.041-.1.851.851,0,0,1-.026-.392.9.9,0,0,1,.113-.319.712.712,0,0,1,.179-.206.527.527,0,0,1,.181-.092.518.518,0,0,1,.126-.019h.044l-.044,0a.52.52,0,0,0-.128.012.543.543,0,0,0-.191.084.714.714,0,0,0-.2.2.947.947,0,0,0-.134.328.893.893,0,0,0,.012.421.708.708,0,0,0,.041.11,1,1,0,0,0,.053.1,1.274,1.274,0,0,0,.145.2,1.75,1.75,0,0,0,.412.332,3.293,3.293,0,0,0,.515.245l.069.026.071.024L24,32.25l.144.048c.048.016.1.029.149.044l.151.044c.051.015.1.03.154.042l.315.076.324.065c.109.021.221.037.332.055a12.732,12.732,0,0,0,1.389.13c.475.019.957.018,1.438,0s.961-.045,1.433-.077.935-.069,1.384-.1.882-.06,1.293-.077c.1-.005.2-.008.3-.011s.2-.006.3-.008l.285-.005h.275c.09,0,.178,0,.263,0s.17,0,.251.006l.239.01.115.005.111.008c.145.01.282.019.407.033s.241.022.345.038l.278.036.2.033.17.028-.168-.037-.2-.045M33.245,0,21.117,9.586V5.961H16.792V13L11.7,17.026V42.774h7.454v-4.2h0V35.729a.99.99,0,0,1,.989-.991h26.2a.99.99,0,0,1,.989.991v7.046h7.454V17.026ZM33.83,7.08h2.376V9.462H33.83Zm0,3.188h2.376V12.65H33.83ZM30.7,7.08h2.376V9.462H30.7Zm0,3.188h2.376V12.65H30.7ZM23.03,24.9V20.263a.481.481,0,1,1,.963,0v.8a28.4,28.4,0,0,1,9.252-1.282A28.4,28.4,0,0,1,42.5,21.062v-.8a.481.481,0,1,1,.963,0v6.3H37.206c-.011-.214-.016-.423-.016-.623a12.029,12.029,0,0,1,.256-2.485.133.133,0,0,0-.153-.159,23.734,23.734,0,0,1-4.048.329A23.737,23.737,0,0,1,29.2,23.3a.133.133,0,0,0-.153.159,12.035,12.035,0,0,1,.256,2.485c0,.2-.005.408-.016.623H23.03ZM33.245,34.04H20.058l1.765-4.076a1.716,1.716,0,0,1,2.213-.918A9.531,9.531,0,0,1,26.4,30.609a5.942,5.942,0,0,1,2.809-3.172c-.039.321-.093.652-.165.99a.133.133,0,0,0,.153.159,25.055,25.055,0,0,1,8.1,0,.133.133,0,0,0,.153-.159,11.549,11.549,0,0,1-.194-1.249h6.207l2.972,6.862Zm8.466-4.871c-.084,0-.176-.007-.277-.007l-.326,0-.371.017c-.13.01-.267.022-.41.035-.285.032-.594.07-.917.13s-.663.128-1.012.213l-.263.065-.266.07c-.178.046-.357.1-.538.151-.361.106-.725.22-1.088.336l-1.081.355c-.356.116-.706.233-1.046.34s-.669.21-.983.3-.612.169-.889.239l-.4.093-.361.078-.319.061c-.1.019-.19.032-.272.046-.164.029-.294.045-.382.058l-.136.019.137-.01c.089-.007.22-.012.386-.032.083-.009.175-.018.275-.03l.323-.045.366-.06c.128-.023.263-.051.4-.078s.286-.061.437-.1.306-.073.464-.115c.318-.081.651-.175.994-.277s.7-.211,1.053-.327l1.082-.349c.362-.117.724-.233,1.083-.34s.711-.211,1.056-.3.679-.171,1-.235.623-.117.9-.159l.405-.051.367-.035.324-.02c.1-.006.192-.006.275-.009.166-.007.3,0,.387,0h.137l-.137-.01c-.089-.005-.219-.021-.386-.023" transform="translate(-11.075 30)" fill="#fff"/>
      <rect id="Rectangle_22" data-name="Rectangle 22" width="44.34" height="39.014" transform="translate(0 33.76)" fill="none"/>
    </g>
    <text id="ShahiStay" transform="translate(77.492 85)" fill="#fff" font-size="14" font-family="Poppins-SemiBold, Poppins" font-weight="600"><tspan x="0" y="0">ShahiStay</tspan></text>
  </g>
</svg>
