<svg xmlns="http://www.w3.org/2000/svg" width="89.103" height="85.953" viewBox="0 0 89.103 85.953">
  <g id="Group_9" data-name="Group 9" transform="translate(0 -30.002)">
    <path id="Path_33" data-name="Path 33" d="M42.685,60.993l.106-.067.123-.078c.044-.027.093-.053.143-.081a5.345,5.345,0,0,1,.757-.35,6.708,6.708,0,0,1,1.037-.294,8.659,8.659,0,0,1,1.266-.151c.226-.012.455-.012.7-.008s.48.017.726.037.5.045.752.074.51.065.769.1c.518.073,1.044.158,1.572.235.264.037.532.072.794.1s.53.058.793.078c.526.043,1.045.065,1.547.07s.988-.006,1.447-.033.893-.063,1.291-.111.762-.1,1.083-.154.6-.108.828-.158.407-.091.528-.12l.186-.045-.189.029c-.123.02-.3.048-.535.08s-.511.068-.833.105c-.161.017-.332.037-.514.052l-.278.025-.292.022c-.4.03-.828.048-1.284.061s-.937.006-1.433-.006-1.009-.05-1.529-.094c-.26-.021-.522-.052-.783-.081s-.525-.068-.788-.107c-.526-.074-1.053-.156-1.575-.226s-1.039-.124-1.542-.153c-.252-.015-.5-.022-.744-.021s-.48.011-.711.031a7.887,7.887,0,0,0-1.288.2,6.16,6.16,0,0,0-1.043.354,4.918,4.918,0,0,0-.745.4c-.049.032-.1.062-.139.092l-.117.088-.1.076-.08.068-.146.124.155-.112.085-.061m34.471,21.45H33.037a2.1,2.1,0,0,0-2.095,2.095v1.417H79.251V84.538a2.1,2.1,0,0,0-2.095-2.095M59.992,65.511l-.556-.1c-.208-.041-.441-.071-.694-.108s-.527-.068-.821-.1l-.224-.025-.231-.019-.483-.04c-.165-.013-.335-.019-.509-.029s-.352-.02-.533-.024c-.727-.03-1.515-.03-2.348-.014s-1.71.054-2.616.106-1.841.109-2.79.17-1.912.113-2.876.142-1.926.04-2.872.006a27.691,27.691,0,0,1-2.766-.228c-.222-.034-.444-.062-.661-.1l-.646-.117-.627-.138c-.1-.021-.2-.048-.305-.075l-.3-.079c-.1-.027-.2-.05-.3-.08l-.291-.091-.287-.089c-.046-.015-.1-.03-.139-.044l-.138-.047a6.431,6.431,0,0,1-1.017-.446,3.417,3.417,0,0,1-.805-.607l-.079-.089a.893.893,0,0,1-.075-.091l-.07-.092c-.022-.031-.041-.063-.061-.094a1.871,1.871,0,0,1-.112-.2,1.284,1.284,0,0,1-.082-.2,1.706,1.706,0,0,1-.052-.787,1.808,1.808,0,0,1,.228-.641,1.431,1.431,0,0,1,.361-.415,1.062,1.062,0,0,1,.365-.184,1.046,1.046,0,0,1,.254-.038h.089L34.84,60.5a1.051,1.051,0,0,0-.259.024,1.1,1.1,0,0,0-.386.168,1.436,1.436,0,0,0-.4.412,1.9,1.9,0,0,0-.269.66,1.791,1.791,0,0,0,.023.846,1.421,1.421,0,0,0,.083.221,2.014,2.014,0,0,0,.108.209,2.56,2.56,0,0,0,.292.406,3.524,3.524,0,0,0,.83.668,6.641,6.641,0,0,0,1.038.493l.139.052c.052.02.095.033.143.049l.285.1.289.1c.1.032.2.058.3.088l.3.088c.1.03.205.06.31.084l.634.154.653.131c.22.042.444.073.67.111a25.7,25.7,0,0,0,2.8.262c.956.039,1.928.036,2.9.007s1.936-.091,2.887-.155,1.884-.139,2.787-.2,1.776-.12,2.6-.154c.207-.011.411-.016.612-.022s.4-.013.594-.016l.574-.01h.553c.181,0,.358,0,.531.008s.342.006.507.013l.481.021.231.01.223.016c.293.021.568.039.821.067s.486.045.7.076l.559.073.412.067.343.056L60.4,65.6l-.408-.09M55.1,0,30.667,19.261V11.976H21.953V26.131L11.7,34.212V85.955H26.719V77.52h0V71.8A1.992,1.992,0,0,1,28.711,69.8h52.77A1.992,1.992,0,0,1,83.474,71.8V85.955H98.49V34.212Zm1.18,14.223h4.787v4.786H56.276Zm0,6.407h4.787v4.787H56.276Zm-6.31-6.407h4.787v4.786H49.966Zm0,6.407h4.787v4.787H49.966ZM34.52,50.029V40.717a.97.97,0,1,1,1.939,0v1.606c4.112-1.557,10.926-2.575,18.637-2.575s14.524,1.018,18.637,2.575V40.717a.97.97,0,1,1,1.939,0V53.382h-12.6c-.022-.431-.032-.849-.033-1.251a24.116,24.116,0,0,1,.516-4.994.267.267,0,0,0-.308-.32,47.922,47.922,0,0,1-8.153.661,47.928,47.928,0,0,1-8.154-.661.267.267,0,0,0-.308.32,24.128,24.128,0,0,1,.515,4.994c0,.4-.011.82-.033,1.251H34.52ZM55.1,68.4H28.533l3.556-8.19a3.46,3.46,0,0,1,4.457-1.844,19.2,19.2,0,0,1,4.762,3.14c1.824-3.98,4.078-5.662,5.659-6.373-.079.646-.188,1.311-.332,1.99a.267.267,0,0,0,.308.32,50.591,50.591,0,0,1,16.307,0,.267.267,0,0,0,.308-.32,23.154,23.154,0,0,1-.39-2.511h12.5L81.66,68.4Zm17.054-9.789c-.168,0-.355-.014-.558-.014l-.657.007-.747.035c-.263.019-.538.044-.826.07-.574.064-1.2.141-1.848.262s-1.336.258-2.038.428l-.53.131-.535.141c-.359.093-.72.2-1.084.3-.727.213-1.46.442-2.192.674l-2.177.713c-.718.233-1.422.469-2.107.684s-1.348.421-1.981.6-1.234.34-1.79.481l-.8.188-.727.156-.642.123c-.2.037-.382.065-.547.093-.331.058-.592.09-.77.116l-.273.039.275-.019c.179-.015.444-.025.778-.065.167-.019.353-.035.554-.061l.65-.09.737-.121c.259-.047.53-.1.813-.157s.577-.122.879-.193.616-.146.935-.23c.641-.162,1.312-.351,2-.556s1.4-.424,2.121-.656l2.179-.7c.729-.236,1.459-.468,2.181-.684s1.433-.425,2.127-.6,1.367-.343,2.011-.472,1.255-.235,1.822-.32l.816-.1.739-.07.652-.04c.2-.012.387-.013.554-.019.335-.014.6,0,.779-.006H73.2l-.275-.021c-.18-.011-.442-.042-.778-.046" transform="translate(-10.545 30)" fill="#0f6360"/>
    <rect id="Rectangle_22" data-name="Rectangle 22" width="89.103" height="79.026" transform="translate(0 36.928)" fill="none"/>
  </g>
</svg>
